<?xml version="1.0" standalone="yes"?>
<svg xmlns="http://www.w3.org/2000/svg" width="489" height="284">
<path style="fill:#000000; stroke:none;" d="M0 0L0 284L489 284L489 0L0 0z"/>
<path style="fill:#ffffff; stroke:none;" d="M21 75C32.4358 90.9201 44.5814 106.343 56.3742 122C58.7013 125.09 65.706 137.589 70.6929 134.863C76.8791 131.483 65.5982 119.966 63.3735 117C52.0646 101.922 40.5067 87.0265 29.1296 72C26.696 68.7858 20.5924 57.1604 15.3171 60.0864C12.4164 61.6954 13.0057 66.2501 13 69L13 95L13 178C13 184.663 12.8793 191.338 13.0046 198C13.0487 200.344 12.9382 203.571 15.3133 204.914C20.8322 208.033 20.994 198.912 21 196L21 159L21 125L21 75M120 75L120 125L120 159L120 196C120.006 198.78 120.168 208.066 125.571 204.914C127.879 203.567 127.911 200.324 127.985 198C128.194 191.347 128 184.657 128 178L128 95C128 86.3337 128.045 77.6661 127.999 69C127.985 66.2499 128.421 61.7129 125.566 60.0864C120.942 57.4518 115.845 66.1897 113.6 69C104.086 80.9096 94.9098 93.0878 85.3997 105C83.3652 107.548 74.5869 116.419 79.6034 119.762C83.8778 122.611 89.1602 113.549 91.1998 111C100.784 99.0215 109.927 86.5672 120 75M232.637 61.0471C229.981 62.7669 228.889 67.2253 227.811 70C225.088 77.0068 222.393 84.0188 219.6 91C208.418 118.955 197.503 147.016 186.399 175C183.267 182.893 179.253 190.838 176.909 199C176.131 201.707 176.387 207.69 180.887 205.824C184.07 204.504 185.242 199.883 186.4 197C189.469 189.359 192.341 181.646 195.4 174C206.991 145.021 218.44 115.992 230 87C232.666 80.313 236.426 73.0533 237.898 66.0046C238.563 62.8217 236.367 58.6319 232.637 61.0471M343.599 61.0471C341.413 62.6768 342.005 66.6464 342 69L342 90L342 178C342 185.579 341.389 193.446 342.059 200.995C342.272 203.397 344.082 208.151 347.401 205.914C349.617 204.42 348.995 200.258 349 198L349 177L349 88C349 80.4306 349.627 72.557 348.941 65.0193C348.705 62.4248 346.729 58.7127 343.599 61.0471M361.762 61.027C359.717 62.7814 361.074 65.4791 363.152 66.3966C366.715 67.9695 372.184 66.9998 376 67C416.606 67.0026 451.801 102.032 444.385 144C439.91 169.325 420.555 191.848 395 197.575C387.367 199.285 379.774 198.997 372 199C368.913 199.001 364.008 198.262 361.623 200.742C359.715 202.724 360.874 205.4 363.149 206.397C366.723 207.963 372.175 207 376 207C390.395 207 404.398 205.055 417 197.547C456.223 174.178 465.249 116.808 433.91 83C418.855 66.7596 400.752 60 379 60C374.871 60 365.06 58.1967 361.762 61.027M242.214 80.9707C238.987 81.8106 239.689 85.6486 240.374 88.0008C242.462 95.17 245.922 102.025 248.576 109C258.13 134.117 268.22 159.048 278.2 184C280.571 189.928 282.422 196.226 285.244 201.956C286.28 204.061 287.998 206.755 290.786 206.029C294.013 205.189 293.311 201.351 292.626 198.999C290.538 191.83 287.078 184.975 284.424 178C274.868 152.879 264.519 128.063 254.811 103C252.504 97.0433 250.582 90.7824 247.756 85.044C246.72 82.9393 245.002 80.2448 242.214 80.9707M148.059 194.028C139.842 198.51 146.818 211.293 154.941 206.968C163.338 202.498 156.858 189.227 148.059 194.028M314.133 194.028C305.786 198.814 313.531 211.746 321.775 206.82C329.8 202.026 322.514 189.224 314.133 194.028M473.133 194.028C464.786 198.814 472.531 211.746 480.775 206.82C488.8 202.026 481.514 189.224 473.133 194.028M41 226L41 256L44 256L44 232C47.0507 235.843 49.5193 239.815 54 242C56.3307 237.956 60.0975 235.478 62 231C64.2822 238.721 63 247.975 63 256L65 256L65 226C59.4511 228.642 56.2149 233.919 53 239C50.3992 233.778 46.8199 227.708 41 226M83 226L83 229C85.633 229.626 87.7638 230.42 89.7878 232.344C91.416 233.892 92.6933 235.842 93.3434 238.001C93.9348 239.965 93.93 242.047 93.2932 243.999C87.9274 260.446 64.5324 249.409 72.0934 236.004C74.5608 231.629 79.5223 230.113 82 226C63.8918 227.643 63.0426 255.556 82 255.944C101.104 256.336 101.436 227.901 83 226M99 226C99 235.79 97.2192 247.592 100 257C102.477 253.73 102 250.001 102 246L102 226L99 226M103 226L103 229C106.009 229.009 109.228 228.775 111.996 230.179C126.846 237.713 115.632 253.703 103 254C106.332 259.08 115.041 255.67 118.442 251.786C124.52 244.846 122.805 232.807 114.985 228.009C111.318 225.76 107.131 226.003 103 226M144 256L144 254C139.922 254 134.821 254.717 131.109 252.682C128.384 251.188 125.52 246.29 129.322 244.198C131.779 242.845 136.262 243.978 139 244C138.493 237.492 134.452 237.992 129 239C127.664 228.803 136.206 229 144 229L144 226C139.399 226 133.099 224.922 129.133 227.742C124.159 231.28 126.361 235.676 125.687 240.576C125.019 245.427 122.216 250.47 127.228 254.258C131.407 257.416 139.06 256 144 256M147 226C145.056 232.577 145.986 240.172 146 247C146.008 250.787 145.652 253.829 149 256L149 226L147 226M150 226C153.263 231.033 159.43 227.152 163.677 230.742C166.337 232.991 165.449 236.297 162.851 238.142C159.297 240.666 154.113 240 150 240C153.103 246.6 161.761 254.539 169 256C166.367 250.596 160.417 245.525 155 243C158.166 242.062 162.023 242.421 164.941 240.821C170.178 237.951 170.181 230.049 164.941 227.179C160.817 224.92 154.549 226 150 226M171 226L171 256L174 256L174 232C178.868 238.134 184.33 249.512 192 252C190.311 245.506 184.868 240.275 180.87 235C178.031 231.253 175.613 227.407 171 226M193 226L193 256L195 256L195 226L193 226M229 226C224.408 234.622 218.977 246.247 218 256C224.687 251.954 226.764 238.919 230 232C232.703 238.969 235.348 252.157 242 256C240.398 245.305 233.523 236.255 231 226L229 226M245 226C243.056 232.577 243.986 240.172 244 247C244.008 250.787 243.652 253.829 247 256L247 226L245 226M248 226C251.263 231.033 257.43 227.152 261.677 230.742C264.337 232.991 263.449 236.297 260.851 238.142C257.297 240.666 252.113 240 248 240C251.103 246.6 259.761 254.539 267 256C264.367 250.596 258.417 245.525 253 243C256.166 242.062 260.023 242.421 262.941 240.821C268.178 237.951 268.181 230.049 262.941 227.179C258.817 224.92 252.549 226 248 226M268 226L268 229L292 229L292 226L268 226M294 226L294 231L297 231L297 226L294 226M314 242C314.604 243.123 315.768 244.718 315.962 246.044C317.28 255.043 304.578 254 299 254L299 256C304.098 256 312.375 257.568 316.581 254.106C325.998 246.357 312.917 233.762 304 240C300.348 229.27 309.876 229 318 229L318 226C313.106 226 306.194 224.779 302.303 228.434C293.954 236.277 305.268 248.108 314 242M321 226L321 229L345 229L345 226L321 226M367 226C367 235.79 365.219 247.592 368 257C370.477 253.73 370 250.001 370 246L370 226L367 226M371 226C373.782 230.291 380.011 229.127 383.786 233.109C393.632 243.493 381.956 253.765 371 254C374.614 259.511 383.923 255.158 387.197 250.895C392.739 243.678 391.149 232.304 382.96 227.769C379.281 225.731 375.063 226.003 371 226M401 226C398.19 236.274 392.459 245.623 390 256C397.377 253.474 399.537 238.503 403 232C405.162 238.391 408.274 253.661 415 256C413.749 248.736 409.589 233.75 403 230L404 226L401 226M431 226C432.706 231.857 440.825 232.48 441.657 240C443.305 254.884 420.016 257.107 418.343 242C417.359 233.117 427.116 232.475 429 226C410.074 228.056 411.691 256.552 431 255.942C449.284 255.365 448.496 227.9 431 226M279 230L279 256L281 256L281 230L279 230M332 230L332 256L334 256L334 230L332 230M295 232C292.801 239.438 294 248.271 294 256L297 256L297 232L295 232z"/>
</svg>
